# xmcd CD database file
#
# Track frame offsets:
#	150
#	32010
#	60660
#	86264
#	108406
#	151696
#	188869
#	220181
#	240684
#	264166
#
# Disc length: 3629 seconds
#
# Revision: 0
# Processed by: cddbd v1.5.2PL0 Copyright (c) Steve Scherf et al.
# Submitted via: CDex 1.51
#
DISCID=760e2b0a
DTITLE=Milenium mesta jazzu - Karel Ruzicka and Frydlant All Stars 
DYEAR=2014
DGENRE=Jazz
TTITLE0=Frydlant
TTITLE1=Grotesque
TTITLE2=Velka voda
TTITLE3=Black Butterfly
TTITLE4=Palivec on the Rock
TTITLE5=Second Time Around
TTITLE6=Jako vcera
TTITLE7=Mashed Potatoes
TTITLE8=A. B. Blues
TTITLE9=Freedland - Freddie Freeloader
EXTD=YEAR: 2014
EXTT0=
EXTT1=
EXTT2=
EXTT3=
EXTT4=
EXTT5=
EXTT6=
EXTT7=
EXTT8=
EXTT9=
PLAYORDER=
